<svg xmlns="http://www.w3.org/2000/svg" xmlns:xlink="http://www.w3.org/1999/xlink" width="480" zoomAndPan="magnify" viewBox="0 0 360 359.999987" height="480" preserveAspectRatio="xMidYMid meet" version="1.0"><path fill="#000000" d="M 346.886719 208.152344 C 353.953125 208.152344 359.730469 202.375 359.730469 195.3125 L 359.730469 164.261719 C 359.730469 157.195312 353.953125 151.417969 346.886719 151.417969 L 333.554688 151.417969 C 326.492188 151.417969 319.015625 145.890625 316.9375 139.140625 L 305.558594 111.519531 C 302.21875 105.292969 303.574219 96.117188 308.5625 91.125 L 318.003906 81.6875 C 322.992188 76.691406 323 68.519531 318.003906 63.523438 L 296.046875 41.570312 C 291.050781 36.574219 282.878906 36.574219 277.886719 41.570312 L 268.445312 51.007812 C 263.449219 56.003906 254.269531 57.351562 248.050781 54.007812 L 220.425781 42.636719 C 213.675781 40.558594 208.152344 33.082031 208.152344 26.019531 L 208.152344 12.683594 C 208.152344 5.621094 202.375 -0.160156 195.3125 -0.160156 L 164.261719 -0.160156 C 157.195312 -0.160156 151.417969 5.621094 151.417969 12.683594 L 151.417969 26.019531 C 151.417969 33.082031 145.890625 40.558594 139.144531 42.636719 L 111.523438 54.007812 C 105.300781 57.351562 96.121094 56 91.128906 51.003906 L 81.691406 41.566406 C 76.695312 36.570312 68.523438 36.570312 63.527344 41.566406 L 41.574219 63.519531 C 36.578125 68.515625 36.578125 76.6875 41.574219 81.683594 L 51.015625 91.121094 C 56.011719 96.117188 57.359375 105.292969 54.023438 111.519531 L 42.644531 139.140625 C 40.566406 145.890625 33.089844 151.414062 26.027344 151.414062 L 12.695312 151.414062 C 5.632812 151.414062 -0.144531 157.191406 -0.144531 164.257812 L -0.144531 195.3125 C -0.144531 202.375 5.632812 208.152344 12.695312 208.152344 L 26.027344 208.152344 C 33.089844 208.152344 40.566406 213.675781 42.644531 220.425781 L 54.027344 248.054688 C 57.367188 254.273438 56.015625 263.453125 51.019531 268.445312 L 41.578125 277.890625 C 36.582031 282.878906 36.582031 291.050781 41.578125 296.046875 L 63.527344 318.003906 C 68.523438 323 76.695312 322.992188 81.691406 318.003906 L 91.132812 308.558594 C 96.128906 303.570312 105.308594 302.214844 111.527344 305.558594 L 139.148438 316.9375 C 145.902344 319.011719 151.421875 326.488281 151.421875 333.554688 L 151.421875 346.886719 C 151.421875 353.953125 157.203125 359.730469 164.265625 359.730469 L 195.316406 359.730469 C 202.378906 359.730469 208.15625 353.953125 208.15625 346.886719 L 208.15625 333.550781 C 208.15625 326.488281 213.679688 319.011719 220.429688 316.933594 L 248.054688 305.558594 C 254.273438 302.214844 263.453125 303.5625 268.445312 308.558594 L 277.894531 318.003906 C 282.886719 323 291.0625 322.992188 296.050781 318.003906 L 318.007812 296.046875 C 323 291.054688 323.003906 282.878906 318.007812 277.886719 L 308.570312 268.445312 C 303.574219 263.449219 302.222656 254.269531 305.5625 248.050781 L 316.9375 220.425781 C 319.011719 213.675781 326.492188 208.152344 333.558594 208.152344 Z M 179.785156 253.816406 C 138.902344 253.816406 105.757812 220.671875 105.757812 179.785156 C 105.757812 138.898438 138.902344 105.753906 179.785156 105.753906 C 220.671875 105.753906 253.820312 138.898438 253.820312 179.785156 C 253.820312 220.671875 220.671875 253.816406 179.785156 253.816406 Z M 179.785156 253.816406 " fill-opacity="1" fill-rule="nonzero"/></svg>