<svg xmlns="http://www.w3.org/2000/svg" xmlns:xlink="http://www.w3.org/1999/xlink" width="480" zoomAndPan="magnify" viewBox="0 0 360 359.999987" height="480" preserveAspectRatio="xMidYMid meet" version="1.0"><defs><clipPath id="bb7e6f3c40"><path d="M 22.5 0 L 337.5 0 L 337.5 90 L 22.5 90 Z M 22.5 0 " clip-rule="nonzero"/></clipPath><clipPath id="36cde5e9bd"><path d="M 126 4.039062 L 234 4.039062 L 234 85.792969 L 126 85.792969 Z M 126 4.039062 " clip-rule="nonzero"/></clipPath><clipPath id="b2fcd5ff46"><path d="M 143.25 4.039062 L 216.75 4.039062 C 221.324219 4.039062 225.710938 5.855469 228.949219 9.089844 C 232.183594 12.324219 234 16.710938 234 21.289062 L 234 68.542969 C 234 73.121094 232.183594 77.507812 228.949219 80.742188 C 225.710938 83.976562 221.324219 85.792969 216.75 85.792969 L 143.25 85.792969 C 138.675781 85.792969 134.289062 83.976562 131.050781 80.742188 C 127.816406 77.507812 126 73.121094 126 68.542969 L 126 21.289062 C 126 16.710938 127.816406 12.324219 131.050781 9.089844 C 134.289062 5.855469 138.675781 4.039062 143.25 4.039062 Z M 143.25 4.039062 " clip-rule="nonzero"/></clipPath></defs><g clip-path="url(#bb7e6f3c40)"><path fill="#000000" d="M 326.25 44.15625 L 247.5 44.15625 L 247.5 11.25 C 247.5 5.0625 242.4375 0 236.25 0 L 123.75 0 C 117.5625 0 112.5 5.0625 112.5 11.25 L 112.5 44.15625 L 33.75 44.15625 C 27.5625 44.15625 22.5 49.21875 22.5 55.40625 L 22.5 77.90625 C 22.5 84.09375 27.5625 89.15625 33.75 89.15625 L 326.25 89.15625 C 332.4375 89.15625 337.5 84.09375 337.5 77.90625 L 337.5 55.40625 C 337.5 49.21875 332.4375 44.15625 326.25 44.15625 Z M 326.25 44.15625 " fill-opacity="1" fill-rule="nonzero"/></g><path fill="#000000" d="M 72 350.15625 C 72.5625 355.78125 77.34375 360 83.25 360 L 277.03125 360 C 282.65625 360 287.4375 355.78125 288.28125 350.15625 L 315.28125 112.78125 L 45 112.78125 Z M 225 313.59375 L 244.6875 156.375 C 245.53125 150.1875 251.15625 145.96875 257.34375 146.53125 C 263.53125 147.375 267.75 153 267.1875 159.1875 L 247.5 316.40625 C 246.65625 322.03125 241.875 326.25 236.25 326.25 C 235.6875 326.25 235.40625 326.25 234.84375 326.25 C 228.65625 325.40625 224.4375 319.78125 225 313.59375 Z M 168.75 157.78125 C 168.75 151.59375 173.8125 146.53125 180 146.53125 C 186.1875 146.53125 191.25 151.59375 191.25 157.78125 L 191.25 315 C 191.25 321.1875 186.1875 326.25 180 326.25 C 173.8125 326.25 168.75 321.1875 168.75 315 Z M 102.65625 146.53125 C 108.84375 145.6875 114.46875 150.1875 115.3125 156.375 L 135 313.59375 C 135.84375 319.78125 131.34375 325.40625 125.15625 326.25 C 124.59375 326.25 124.3125 326.25 123.75 326.25 C 118.125 326.25 113.34375 322.03125 112.5 316.40625 L 92.8125 159.1875 C 92.25 153 96.46875 147.375 102.65625 146.53125 Z M 102.65625 146.53125 " fill-opacity="1" fill-rule="nonzero"/><g clip-path="url(#36cde5e9bd)"><g clip-path="url(#b2fcd5ff46)"><path fill="#000000" d="M 126 4.039062 L 233.945312 4.039062 L 233.945312 85.792969 L 126 85.792969 Z M 126 4.039062 " fill-opacity="1" fill-rule="nonzero"/></g></g></svg>